<mxfile host="app.diagrams.net" agent="Mozilla/5.0 (Macintosh; Intel Mac OS X 10_15_7) AppleWebKit/537.36 (KHTML, like Gecko) Chrome/131.0.0.0 Safari/537.36" version="25.0.3">
  <diagram name="Page-1" id="2a216829-ef6e-dabb-86c1-c78162f3ba2b">
    <mxGraphModel dx="794" dy="452" grid="1" gridSize="10" guides="1" tooltips="1" connect="1" arrows="1" fold="1" page="1" pageScale="1" pageWidth="850" pageHeight="1100" background="none" math="0" shadow="0">
      <root>
        <mxCell id="0" />
        <mxCell id="1" parent="0" />
        <mxCell id="xjtqPfMVN6CqOKgS1cWF-1" value="&lt;font style=&quot;font-weight: normal; font-size: 14px;&quot; face=&quot;Garamond&quot;&gt;Component Generation Process&lt;/font&gt;" style="swimlane;startSize=20;horizontal=0;html=1;whiteSpace=wrap;" parent="1" vertex="1">
          <mxGeometry x="80" y="200" width="730" height="690" as="geometry" />
        </mxCell>
        <mxCell id="xjtqPfMVN6CqOKgS1cWF-6" value="" style="swimlane;html=1;startSize=20;fontStyle=0;collapsible=0;horizontal=0;swimlaneLine=0;fillColor=none;whiteSpace=wrap;" parent="xjtqPfMVN6CqOKgS1cWF-1" vertex="1">
          <mxGeometry x="20" y="250" width="710" height="240" as="geometry" />
        </mxCell>
        <mxCell id="xjtqPfMVN6CqOKgS1cWF-5" value="" style="swimlane;html=1;startSize=20;fontStyle=0;collapsible=0;horizontal=0;swimlaneLine=0;fillColor=none;whiteSpace=wrap;" parent="xjtqPfMVN6CqOKgS1cWF-6" vertex="1">
          <mxGeometry y="-250" width="710" height="250" as="geometry" />
        </mxCell>
        <mxCell id="xjtqPfMVN6CqOKgS1cWF-7" value="&lt;font style=&quot;font-size: 14px;&quot; face=&quot;Garamond&quot;&gt;M2M Transformer&lt;/font&gt;" style="text;html=1;align=center;verticalAlign=middle;resizable=0;points=[];autosize=1;strokeColor=none;fillColor=none;rotation=-90;" parent="xjtqPfMVN6CqOKgS1cWF-5" vertex="1">
          <mxGeometry x="-50" y="90" width="130" height="30" as="geometry" />
        </mxCell>
        <mxCell id="7a84cebc1def654-1" value="" style="shape=mxgraph.bpmn.shape;html=1;verticalLabelPosition=bottom;labelBackgroundColor=#ffffff;verticalAlign=top;perimeter=ellipsePerimeter;outline=standard;symbol=general;" parent="xjtqPfMVN6CqOKgS1cWF-5" vertex="1">
          <mxGeometry x="30" y="49" width="50" height="50" as="geometry" />
        </mxCell>
        <mxCell id="7a84cebc1def654-2" value="&lt;font style=&quot;font-size: 14px;&quot; face=&quot;Garamond&quot;&gt;Identify operations (parsing OAS&#39;s path object)&lt;/font&gt;" style="shape=ext;rounded=1;html=1;whiteSpace=wrap;" parent="xjtqPfMVN6CqOKgS1cWF-5" vertex="1">
          <mxGeometry x="244" y="34" width="120" height="80" as="geometry" />
        </mxCell>
        <mxCell id="7a84cebc1def654-3" value="&lt;font style=&quot;font-size: 14px;&quot; face=&quot;Garamond&quot;&gt;Data flow identification (parsing OAS&#39;s parameter and response objects)&lt;/font&gt;" style="shape=ext;rounded=1;html=1;whiteSpace=wrap;" parent="xjtqPfMVN6CqOKgS1cWF-5" vertex="1">
          <mxGeometry x="399" y="34" width="140" height="80" as="geometry" />
        </mxCell>
        <mxCell id="7a84cebc1def654-36" style="edgeStyle=orthogonalEdgeStyle;rounded=0;html=1;jettySize=auto;orthogonalLoop=1;" parent="xjtqPfMVN6CqOKgS1cWF-5" source="7a84cebc1def654-1" target="7a84cebc1def654-2" edge="1">
          <mxGeometry relative="1" as="geometry" />
        </mxCell>
        <mxCell id="7a84cebc1def654-39" style="edgeStyle=orthogonalEdgeStyle;rounded=0;html=1;jettySize=auto;orthogonalLoop=1;" parent="xjtqPfMVN6CqOKgS1cWF-5" source="7a84cebc1def654-2" target="7a84cebc1def654-3" edge="1">
          <mxGeometry relative="1" as="geometry" />
        </mxCell>
        <mxCell id="7a84cebc1def654-47" style="edgeStyle=orthogonalEdgeStyle;rounded=0;html=1;jettySize=auto;orthogonalLoop=1;exitX=1;exitY=0.5;exitDx=0;exitDy=0;entryX=0;entryY=0.5;entryDx=0;entryDy=0;" parent="xjtqPfMVN6CqOKgS1cWF-5" source="7a84cebc1def654-3" target="xjtqPfMVN6CqOKgS1cWF-3" edge="1">
          <mxGeometry relative="1" as="geometry">
            <mxPoint x="520" y="74" as="targetPoint" />
          </mxGeometry>
        </mxCell>
        <mxCell id="xjtqPfMVN6CqOKgS1cWF-3" value="&lt;font style=&quot;font-size: 14px;&quot; face=&quot;Garamond&quot;&gt;Generate API instance (ontology)&lt;/font&gt;" style="shape=ext;rounded=1;html=1;whiteSpace=wrap;" parent="xjtqPfMVN6CqOKgS1cWF-5" vertex="1">
          <mxGeometry x="567" y="34" width="120" height="80" as="geometry" />
        </mxCell>
        <mxCell id="xjtqPfMVN6CqOKgS1cWF-22" value="&lt;font style=&quot;font-size: 13px;&quot; face=&quot;Garamond&quot;&gt;API instance&lt;/font&gt;" style="shape=mxgraph.bpmn.data;labelPosition=center;verticalLabelPosition=bottom;align=center;verticalAlign=top;size=15;html=1;bpmnTransferType=none;isCollection=1;" parent="xjtqPfMVN6CqOKgS1cWF-5" vertex="1">
          <mxGeometry x="607" y="160" width="40" height="50" as="geometry" />
        </mxCell>
        <mxCell id="xjtqPfMVN6CqOKgS1cWF-21" value="" style="edgeStyle=elbowEdgeStyle;fontSize=12;html=1;endFill=0;startFill=0;endSize=6;startSize=6;dashed=1;dashPattern=1 4;endArrow=openThin;startArrow=none;rounded=0;exitX=0.5;exitY=1;exitDx=0;exitDy=0;entryX=0.5;entryY=0;entryDx=0;entryDy=0;entryPerimeter=0;" parent="xjtqPfMVN6CqOKgS1cWF-5" source="xjtqPfMVN6CqOKgS1cWF-3" target="xjtqPfMVN6CqOKgS1cWF-22" edge="1">
          <mxGeometry width="160" relative="1" as="geometry">
            <mxPoint x="360" y="210" as="sourcePoint" />
            <mxPoint x="580" y="140" as="targetPoint" />
          </mxGeometry>
        </mxCell>
        <mxCell id="xjtqPfMVN6CqOKgS1cWF-25" value="&lt;font style=&quot;font-size: 13px;&quot; face=&quot;Garamond&quot;&gt;OpenAPI Spec&lt;/font&gt;" style="shape=mxgraph.bpmn.data;labelPosition=center;verticalLabelPosition=bottom;align=center;verticalAlign=top;size=15;html=1;bpmnTransferType=input;" parent="xjtqPfMVN6CqOKgS1cWF-5" vertex="1">
          <mxGeometry x="79" y="139" width="40" height="60" as="geometry" />
        </mxCell>
        <mxCell id="xjtqPfMVN6CqOKgS1cWF-26" value="&lt;font face=&quot;Garamond&quot; style=&quot;font-size: 13px;&quot;&gt;Component Metamodel&amp;nbsp;&lt;/font&gt;&lt;div&gt;&lt;br&gt;&lt;/div&gt;" style="shape=mxgraph.bpmn.data;labelPosition=center;verticalLabelPosition=bottom;align=center;verticalAlign=top;size=15;html=1;bpmnTransferType=input;" parent="xjtqPfMVN6CqOKgS1cWF-5" vertex="1">
          <mxGeometry x="185" y="139" width="40" height="60" as="geometry" />
        </mxCell>
        <mxCell id="xjtqPfMVN6CqOKgS1cWF-44" value="&lt;font style=&quot;font-size: 14px;&quot; face=&quot;Garamond&quot;&gt;Parse API&#39;s specification document&amp;nbsp;&lt;/font&gt;" style="shape=ext;rounded=1;html=1;whiteSpace=wrap;" parent="xjtqPfMVN6CqOKgS1cWF-5" vertex="1">
          <mxGeometry x="90" y="34" width="120" height="80" as="geometry" />
        </mxCell>
        <mxCell id="xjtqPfMVN6CqOKgS1cWF-45" style="edgeStyle=orthogonalEdgeStyle;rounded=0;orthogonalLoop=1;jettySize=auto;html=1;exitX=0;exitY=0;exitDx=12.5;exitDy=0;exitPerimeter=0;entryX=0.187;entryY=1.006;entryDx=0;entryDy=0;entryPerimeter=0;dashed=1;dashPattern=1 4;endArrow=open;endFill=0;" parent="xjtqPfMVN6CqOKgS1cWF-5" source="xjtqPfMVN6CqOKgS1cWF-25" target="xjtqPfMVN6CqOKgS1cWF-44" edge="1">
          <mxGeometry relative="1" as="geometry" />
        </mxCell>
        <mxCell id="xjtqPfMVN6CqOKgS1cWF-46" style="edgeStyle=orthogonalEdgeStyle;rounded=0;orthogonalLoop=1;jettySize=auto;html=1;exitX=0;exitY=0;exitDx=12.5;exitDy=0;exitPerimeter=0;entryX=0.838;entryY=0.998;entryDx=0;entryDy=0;entryPerimeter=0;dashed=1;dashPattern=1 4;endArrow=open;endFill=0;" parent="xjtqPfMVN6CqOKgS1cWF-5" source="xjtqPfMVN6CqOKgS1cWF-26" target="xjtqPfMVN6CqOKgS1cWF-44" edge="1">
          <mxGeometry relative="1" as="geometry" />
        </mxCell>
        <mxCell id="xjtqPfMVN6CqOKgS1cWF-8" value="&lt;font style=&quot;font-size: 14px;&quot; face=&quot;Garamond&quot;&gt;M2C Transformer&lt;/font&gt;" style="text;html=1;align=center;verticalAlign=middle;resizable=0;points=[];autosize=1;strokeColor=none;fillColor=none;rotation=-90;" parent="xjtqPfMVN6CqOKgS1cWF-6" vertex="1">
          <mxGeometry x="-45" y="85" width="120" height="30" as="geometry" />
        </mxCell>
        <mxCell id="xjtqPfMVN6CqOKgS1cWF-16" style="edgeStyle=orthogonalEdgeStyle;rounded=0;orthogonalLoop=1;jettySize=auto;html=1;entryX=0.5;entryY=1;entryDx=0;entryDy=0;exitX=1;exitY=0.5;exitDx=0;exitDy=0;entryPerimeter=0;" parent="xjtqPfMVN6CqOKgS1cWF-6" source="xjtqPfMVN6CqOKgS1cWF-11" target="kn6IeyaoXi6I0wQZNNZl-44" edge="1">
          <mxGeometry relative="1" as="geometry">
            <Array as="points">
              <mxPoint x="385" y="155" />
            </Array>
          </mxGeometry>
        </mxCell>
        <mxCell id="xjtqPfMVN6CqOKgS1cWF-11" value="&lt;font face=&quot;Garamond&quot;&gt;&lt;span style=&quot;font-size: 14px;&quot;&gt;Generate client code&lt;/span&gt;&lt;/font&gt;" style="shape=ext;rounded=1;html=1;whiteSpace=wrap;" parent="xjtqPfMVN6CqOKgS1cWF-6" vertex="1">
          <mxGeometry x="190" y="121" width="120" height="69" as="geometry" />
        </mxCell>
        <mxCell id="xjtqPfMVN6CqOKgS1cWF-12" value="&lt;font style=&quot;font-size: 14px;&quot; face=&quot;Garamond&quot;&gt;Generate component&#39;s UI&lt;/font&gt;" style="shape=ext;rounded=1;html=1;whiteSpace=wrap;" parent="xjtqPfMVN6CqOKgS1cWF-6" vertex="1">
          <mxGeometry x="190" y="20" width="120" height="70" as="geometry" />
        </mxCell>
        <mxCell id="xjtqPfMVN6CqOKgS1cWF-14" style="edgeStyle=orthogonalEdgeStyle;rounded=0;html=1;jettySize=auto;orthogonalLoop=1;exitX=1;exitY=0.5;exitDx=0;exitDy=0;entryX=0.5;entryY=0;entryDx=0;entryDy=0;entryPerimeter=0;" parent="xjtqPfMVN6CqOKgS1cWF-6" source="xjtqPfMVN6CqOKgS1cWF-12" target="kn6IeyaoXi6I0wQZNNZl-44" edge="1">
          <mxGeometry relative="1" as="geometry">
            <mxPoint x="490" y="110" as="targetPoint" />
          </mxGeometry>
        </mxCell>
        <mxCell id="xjtqPfMVN6CqOKgS1cWF-15" value="&lt;font style=&quot;font-size: 14px;&quot; face=&quot;Garamond&quot;&gt;Entcapsulate component&#39;s logic and UI&lt;/font&gt;" style="shape=ext;rounded=1;html=1;whiteSpace=wrap;" parent="xjtqPfMVN6CqOKgS1cWF-6" vertex="1">
          <mxGeometry x="500" y="60" width="120" height="80" as="geometry" />
        </mxCell>
        <mxCell id="xjtqPfMVN6CqOKgS1cWF-37" style="edgeStyle=orthogonalEdgeStyle;rounded=0;orthogonalLoop=1;jettySize=auto;html=1;exitX=0;exitY=0.5;exitDx=0;exitDy=0;exitPerimeter=0;entryX=0.5;entryY=1;entryDx=0;entryDy=0;dashed=1;dashPattern=1 4;endArrow=openThin;endFill=0;" parent="xjtqPfMVN6CqOKgS1cWF-6" source="xjtqPfMVN6CqOKgS1cWF-25" target="xjtqPfMVN6CqOKgS1cWF-11" edge="1">
          <mxGeometry relative="1" as="geometry">
            <Array as="points">
              <mxPoint x="50" y="-81" />
              <mxPoint x="50" y="210" />
              <mxPoint x="250" y="210" />
            </Array>
          </mxGeometry>
        </mxCell>
        <mxCell id="xjtqPfMVN6CqOKgS1cWF-38" style="edgeStyle=orthogonalEdgeStyle;rounded=0;orthogonalLoop=1;jettySize=auto;html=1;entryX=0.5;entryY=0;entryDx=0;entryDy=0;dashed=1;dashPattern=1 4;endArrow=openThin;endFill=0;exitX=0;exitY=0.5;exitDx=0;exitDy=0;exitPerimeter=0;" parent="xjtqPfMVN6CqOKgS1cWF-6" source="xjtqPfMVN6CqOKgS1cWF-22" target="xjtqPfMVN6CqOKgS1cWF-12" edge="1">
          <mxGeometry relative="1" as="geometry">
            <Array as="points">
              <mxPoint x="250" y="-65" />
            </Array>
          </mxGeometry>
        </mxCell>
        <mxCell id="kn6IeyaoXi6I0wQZNNZl-45" style="edgeStyle=orthogonalEdgeStyle;rounded=0;orthogonalLoop=1;jettySize=auto;html=1;exitX=1;exitY=0.5;exitDx=0;exitDy=0;exitPerimeter=0;entryX=0;entryY=0.5;entryDx=0;entryDy=0;" parent="xjtqPfMVN6CqOKgS1cWF-6" source="kn6IeyaoXi6I0wQZNNZl-44" target="xjtqPfMVN6CqOKgS1cWF-15" edge="1">
          <mxGeometry relative="1" as="geometry" />
        </mxCell>
        <mxCell id="kn6IeyaoXi6I0wQZNNZl-44" value="" style="points=[[0.25,0.25,0],[0.5,0,0],[0.75,0.25,0],[1,0.5,0],[0.75,0.75,0],[0.5,1,0],[0.25,0.75,0],[0,0.5,0]];shape=mxgraph.bpmn.gateway2;html=1;verticalLabelPosition=bottom;labelBackgroundColor=#ffffff;verticalAlign=top;align=center;perimeter=rhombusPerimeter;outlineConnect=0;outline=none;symbol=none;gwType=parallel;" parent="xjtqPfMVN6CqOKgS1cWF-6" vertex="1">
          <mxGeometry x="360" y="75" width="50" height="50" as="geometry" />
        </mxCell>
        <mxCell id="kn6IeyaoXi6I0wQZNNZl-46" style="edgeStyle=orthogonalEdgeStyle;rounded=0;orthogonalLoop=1;jettySize=auto;html=1;exitX=1;exitY=0.5;exitDx=0;exitDy=0;entryX=0;entryY=0.5;entryDx=0;entryDy=0;entryPerimeter=0;" parent="xjtqPfMVN6CqOKgS1cWF-6" source="xjtqPfMVN6CqOKgS1cWF-3" target="kn6IeyaoXi6I0wQZNNZl-47" edge="1">
          <mxGeometry relative="1" as="geometry">
            <Array as="points">
              <mxPoint x="700" y="-176" />
              <mxPoint x="700" y="10" />
              <mxPoint x="90" y="10" />
              <mxPoint x="90" y="96" />
            </Array>
          </mxGeometry>
        </mxCell>
        <mxCell id="kn6IeyaoXi6I0wQZNNZl-49" style="edgeStyle=orthogonalEdgeStyle;rounded=0;orthogonalLoop=1;jettySize=auto;html=1;exitX=0.5;exitY=0;exitDx=0;exitDy=0;exitPerimeter=0;entryX=0;entryY=0.5;entryDx=0;entryDy=0;" parent="xjtqPfMVN6CqOKgS1cWF-6" source="kn6IeyaoXi6I0wQZNNZl-47" target="xjtqPfMVN6CqOKgS1cWF-12" edge="1">
          <mxGeometry relative="1" as="geometry">
            <Array as="points">
              <mxPoint x="135" y="55" />
            </Array>
          </mxGeometry>
        </mxCell>
        <mxCell id="kn6IeyaoXi6I0wQZNNZl-50" style="edgeStyle=orthogonalEdgeStyle;rounded=0;orthogonalLoop=1;jettySize=auto;html=1;entryX=0;entryY=0.5;entryDx=0;entryDy=0;exitX=0.5;exitY=1;exitDx=0;exitDy=0;exitPerimeter=0;" parent="xjtqPfMVN6CqOKgS1cWF-6" source="kn6IeyaoXi6I0wQZNNZl-47" target="xjtqPfMVN6CqOKgS1cWF-11" edge="1">
          <mxGeometry relative="1" as="geometry" />
        </mxCell>
        <mxCell id="kn6IeyaoXi6I0wQZNNZl-47" value="" style="points=[[0.25,0.25,0],[0.5,0,0],[0.75,0.25,0],[1,0.5,0],[0.75,0.75,0],[0.5,1,0],[0.25,0.75,0],[0,0.5,0]];shape=mxgraph.bpmn.gateway2;html=1;verticalLabelPosition=bottom;labelBackgroundColor=#ffffff;verticalAlign=top;align=center;perimeter=rhombusPerimeter;outlineConnect=0;outline=none;symbol=none;gwType=parallel;" parent="xjtqPfMVN6CqOKgS1cWF-6" vertex="1">
          <mxGeometry x="110" y="71" width="50" height="50" as="geometry" />
        </mxCell>
        <mxCell id="kn6IeyaoXi6I0wQZNNZl-32" value="" style="swimlane;html=1;startSize=20;fontStyle=0;collapsible=0;horizontal=0;swimlaneLine=0;fillColor=none;whiteSpace=wrap;" parent="xjtqPfMVN6CqOKgS1cWF-1" vertex="1">
          <mxGeometry x="20" y="490" width="710" height="200" as="geometry" />
        </mxCell>
        <mxCell id="kn6IeyaoXi6I0wQZNNZl-33" value="&lt;font style=&quot;font-size: 14px;&quot; face=&quot;Garamond&quot;&gt;Component Developer/&lt;/font&gt;&lt;div&gt;&lt;font style=&quot;font-size: 14px;&quot; face=&quot;Garamond&quot;&gt;repository Manager&lt;/font&gt;&lt;/div&gt;" style="text;html=1;align=center;verticalAlign=middle;resizable=0;points=[];autosize=1;strokeColor=none;fillColor=none;rotation=-90;" parent="kn6IeyaoXi6I0wQZNNZl-32" vertex="1">
          <mxGeometry x="-59" y="55" width="160" height="50" as="geometry" />
        </mxCell>
        <mxCell id="kn6IeyaoXi6I0wQZNNZl-36" style="edgeStyle=orthogonalEdgeStyle;rounded=0;orthogonalLoop=1;jettySize=auto;html=1;exitX=1;exitY=0.5;exitDx=0;exitDy=0;entryX=0;entryY=0.5;entryDx=0;entryDy=0;" parent="kn6IeyaoXi6I0wQZNNZl-32" source="xjtqPfMVN6CqOKgS1cWF-17" target="kn6IeyaoXi6I0wQZNNZl-34" edge="1">
          <mxGeometry relative="1" as="geometry" />
        </mxCell>
        <mxCell id="kn6IeyaoXi6I0wQZNNZl-43" style="edgeStyle=orthogonalEdgeStyle;rounded=0;orthogonalLoop=1;jettySize=auto;html=1;exitX=0.25;exitY=1;exitDx=0;exitDy=0;entryX=0.5;entryY=0;entryDx=0;entryDy=0;dashed=1;dashPattern=1 4;endArrow=open;endFill=0;" parent="kn6IeyaoXi6I0wQZNNZl-32" source="xjtqPfMVN6CqOKgS1cWF-17" target="kn6IeyaoXi6I0wQZNNZl-40" edge="1">
          <mxGeometry relative="1" as="geometry" />
        </mxCell>
        <mxCell id="xjtqPfMVN6CqOKgS1cWF-17" value="&lt;font style=&quot;&quot; face=&quot;Garamond&quot;&gt;&lt;span style=&quot;font-size: 14px;&quot;&gt;Packaging&amp;nbsp;resources and metadata&lt;/span&gt;&lt;/font&gt;" style="shape=ext;rounded=1;html=1;whiteSpace=wrap;" parent="kn6IeyaoXi6I0wQZNNZl-32" vertex="1">
          <mxGeometry x="75" y="16" width="120" height="80" as="geometry" />
        </mxCell>
        <mxCell id="xjtqPfMVN6CqOKgS1cWF-36" value="" style="points=[[0.145,0.145,0],[0.5,0,0],[0.855,0.145,0],[1,0.5,0],[0.855,0.855,0],[0.5,1,0],[0.145,0.855,0],[0,0.5,0]];shape=mxgraph.bpmn.event;html=1;verticalLabelPosition=bottom;labelBackgroundColor=#ffffff;verticalAlign=top;align=center;perimeter=ellipsePerimeter;outlineConnect=0;aspect=fixed;outline=end;symbol=terminate2;" parent="kn6IeyaoXi6I0wQZNNZl-32" vertex="1">
          <mxGeometry x="650" y="31" width="50" height="50" as="geometry" />
        </mxCell>
        <mxCell id="xjtqPfMVN6CqOKgS1cWF-39" value="Web Component" style="shape=mxgraph.bpmn.data;labelPosition=center;verticalLabelPosition=bottom;align=center;verticalAlign=top;size=15;html=1;bpmnTransferType=output;" parent="kn6IeyaoXi6I0wQZNNZl-32" vertex="1">
          <mxGeometry x="570" y="96" width="40" height="60" as="geometry" />
        </mxCell>
        <mxCell id="kn6IeyaoXi6I0wQZNNZl-38" style="edgeStyle=orthogonalEdgeStyle;rounded=0;orthogonalLoop=1;jettySize=auto;html=1;" parent="kn6IeyaoXi6I0wQZNNZl-32" source="kn6IeyaoXi6I0wQZNNZl-35" target="xjtqPfMVN6CqOKgS1cWF-36" edge="1">
          <mxGeometry relative="1" as="geometry" />
        </mxCell>
        <mxCell id="kn6IeyaoXi6I0wQZNNZl-35" value="&lt;font style=&quot;&quot; face=&quot;Garamond&quot;&gt;&lt;span style=&quot;font-size: 14px;&quot;&gt;Prepare component&#39;s deployment&amp;nbsp;&lt;/span&gt;&lt;/font&gt;" style="shape=ext;rounded=1;html=1;whiteSpace=wrap;" parent="kn6IeyaoXi6I0wQZNNZl-32" vertex="1">
          <mxGeometry x="400" y="16" width="120" height="80" as="geometry" />
        </mxCell>
        <mxCell id="kn6IeyaoXi6I0wQZNNZl-37" style="edgeStyle=orthogonalEdgeStyle;rounded=0;orthogonalLoop=1;jettySize=auto;html=1;entryX=0;entryY=0.5;entryDx=0;entryDy=0;" parent="kn6IeyaoXi6I0wQZNNZl-32" source="kn6IeyaoXi6I0wQZNNZl-34" target="kn6IeyaoXi6I0wQZNNZl-35" edge="1">
          <mxGeometry relative="1" as="geometry" />
        </mxCell>
        <mxCell id="kn6IeyaoXi6I0wQZNNZl-34" value="&lt;font style=&quot;&quot; face=&quot;Garamond&quot;&gt;&lt;span style=&quot;font-size: 14px;&quot;&gt;Generate Metadata&lt;/span&gt;&lt;/font&gt;" style="shape=ext;rounded=1;html=1;whiteSpace=wrap;" parent="kn6IeyaoXi6I0wQZNNZl-32" vertex="1">
          <mxGeometry x="230" y="16" width="120" height="80" as="geometry" />
        </mxCell>
        <mxCell id="kn6IeyaoXi6I0wQZNNZl-39" style="edgeStyle=orthogonalEdgeStyle;rounded=0;orthogonalLoop=1;jettySize=auto;html=1;exitX=0.5;exitY=1;exitDx=0;exitDy=0;entryX=0;entryY=0.5;entryDx=0;entryDy=0;entryPerimeter=0;dashed=1;dashPattern=1 4;endArrow=open;endFill=0;" parent="kn6IeyaoXi6I0wQZNNZl-32" source="kn6IeyaoXi6I0wQZNNZl-35" target="xjtqPfMVN6CqOKgS1cWF-39" edge="1">
          <mxGeometry relative="1" as="geometry" />
        </mxCell>
        <mxCell id="kn6IeyaoXi6I0wQZNNZl-42" value="" style="group" parent="kn6IeyaoXi6I0wQZNNZl-32" vertex="1" connectable="0">
          <mxGeometry x="60" y="117" width="80" height="88" as="geometry" />
        </mxCell>
        <mxCell id="kn6IeyaoXi6I0wQZNNZl-40" value="" style="shape=datastore;whiteSpace=wrap;html=1;" parent="kn6IeyaoXi6I0wQZNNZl-42" vertex="1">
          <mxGeometry x="15" width="50" height="50" as="geometry" />
        </mxCell>
        <mxCell id="kn6IeyaoXi6I0wQZNNZl-41" value="&lt;font face=&quot;Garamond&quot;&gt;Component&amp;nbsp;&lt;/font&gt;&lt;div&gt;&lt;font face=&quot;Garamond&quot;&gt;repository&lt;/font&gt;&lt;/div&gt;" style="text;html=1;align=center;verticalAlign=middle;resizable=0;points=[];autosize=1;strokeColor=none;fillColor=none;" parent="kn6IeyaoXi6I0wQZNNZl-42" vertex="1">
          <mxGeometry y="48" width="80" height="40" as="geometry" />
        </mxCell>
        <mxCell id="xjtqPfMVN6CqOKgS1cWF-42" style="edgeStyle=orthogonalEdgeStyle;rounded=0;orthogonalLoop=1;jettySize=auto;html=1;exitX=1;exitY=0.5;exitDx=0;exitDy=0;entryX=0.5;entryY=0;entryDx=0;entryDy=0;" parent="xjtqPfMVN6CqOKgS1cWF-1" source="xjtqPfMVN6CqOKgS1cWF-15" target="xjtqPfMVN6CqOKgS1cWF-17" edge="1">
          <mxGeometry relative="1" as="geometry">
            <Array as="points">
              <mxPoint x="640" y="340" />
              <mxPoint x="670" y="340" />
              <mxPoint x="670" y="470" />
              <mxPoint x="155" y="470" />
            </Array>
          </mxGeometry>
        </mxCell>
      </root>
    </mxGraphModel>
  </diagram>
</mxfile>
